<svg xmlns="http://www.w3.org/2000/svg" version="1.1" xmlns:xlink="http://www.w3.org/1999/xlink" xmlns:svgjs="http://svgjs.dev/svgjs" width="1440" height="560" preserveAspectRatio="none" viewBox="0 0 1440 560"><g mask="url(&quot;#SvgjsMask1054&quot;)" fill="none"><path d="M -857.9546524287888,388 C -713.95,353 -425.95,222.4 -137.95465242878876,213 C 150.05,203.6 294.05,345.4 582.0453475712112,341 C 870.05,336.6 1130.45,202.6 1302.0453475712113,191 C 1473.64,179.4 1412.41,264.6 1440,283" stroke="rgba(81, 61, 58, 1)" stroke-width="2"></path><path d="M -1034.5742291166043,265 C -890.57,284.4 -602.57,370.4 -314.57422911660433,362 C -26.57,353.6 117.43,220.2 405.42577088339567,223 C 693.43,225.8 918.51,386.4 1125.4257708833957,376 C 1332.34,365.6 1377.09,212 1440,171" stroke="rgba(81, 61, 58, 1)" stroke-width="2"></path><path d="M -378.52615130525265,391 C -234.53,346.4 53.47,188.6 341.47384869474735,168 C 629.47,147.4 773.47,281.8 1061.4738486947474,288 C 1349.47,294.2 1705.77,183.6 1781.4738486947474,199 C 1857.18,214.4 1508.29,331.8 1440,365" stroke="rgba(81, 61, 58, 1)" stroke-width="2"></path><path d="M -766.6509793425072,295 C -622.65,279.4 -334.65,209.2 -46.650979342507185,217 C 241.35,224.8 385.35,333.6 673.3490206574928,334 C 961.35,334.4 1240.02,215.6 1393.349020657493,219 C 1546.68,222.4 1430.67,324.6 1440,351" stroke="rgba(81, 61, 58, 1)" stroke-width="2"></path></g><defs><mask id="SvgjsMask1054"><rect width="1440" height="560" fill="#ffffff"></rect></mask></defs></svg>